<svg width="28" height="30" viewBox="0 0 28 30" fill="none" xmlns="http://www.w3.org/2000/svg">
<g clip-path="url(#clip0_1144_4187)">
<path d="M18.0618 17.0037H12.219L17.0732 25.0574H4.91932V4.89854H4.92452L6.58684 7.65737H11.1368L9.09203 4.89854H16.6648C20.0077 4.89854 22.7262 7.55893 22.7262 10.8281V11.0975C22.7262 13.0326 21.7688 14.75 20.299 15.8328L23.1346 19.8273C25.8635 17.856 27.6455 14.6827 27.6455 11.0975V10.8281C27.6455 4.85709 22.721 0 16.6648 0H0V12.0326V29.956H20.0233L20.0519 30.0026H27.6923L18.0618 17.0037Z" fill="#0B6FFF"/>
<path d="M10.6895 14.4677H16.1837L12.3674 9.31787H7.58594L10.6895 14.4677Z" fill="#0B6FFF"/>
</g>
<defs>
<clipPath id="clip0_1144_4187">
<rect width="27.6923" height="30" fill="white"/>
</clipPath>
</defs>
</svg>
